<svg width="20" height="20" viewBox="0 0 20 20" fill="none" xmlns="http://www.w3.org/2000/svg">
<path d="M1.66675 10.4163C1.66675 7.88301 3.71675 5.83301 6.25008 5.83301H15.0001C16.8417 5.83301 18.3334 7.32467 18.3334 9.16634C18.3334 11.008 16.8417 12.4997 15.0001 12.4997H7.91675C6.76675 12.4997 5.83342 11.5663 5.83342 10.4163C5.83342 9.26634 6.76675 8.33301 7.91675 8.33301H14.1667V9.99967H7.84175C7.38341 9.99967 7.38341 10.833 7.84175 10.833H15.0001C15.9167 10.833 16.6667 10.083 16.6667 9.16634C16.6667 8.24967 15.9167 7.49967 15.0001 7.49967H6.25008C4.64175 7.49967 3.33341 8.80801 3.33341 10.4163C3.33341 12.0247 4.64175 13.333 6.25008 13.333H14.1667V14.9997H6.25008C3.71675 14.9997 1.66675 12.9497 1.66675 10.4163Z" fill="#3A3541" fill-opacity="0.54"/>
</svg>
