<svg width="32" height="32" viewBox="0 0 32 32" fill="none" xmlns="http://www.w3.org/2000/svg">
<path d="M18.9999 14.9913C19.8083 14.433 20.3749 13.5163 20.3749 12.6663C20.3749 10.783 18.9166 9.33301 17.0416 9.33301H11.8333V20.9997H17.6999C19.4416 20.9997 20.7916 19.583 20.7916 17.8413C20.7916 16.5747 20.0749 15.4913 18.9999 14.9913ZM14.3333 11.4163H16.8333C17.5249 11.4163 18.0833 11.9747 18.0833 12.6663C18.0833 13.358 17.5249 13.9163 16.8333 13.9163H14.3333V11.4163ZM17.2499 18.9163H14.3333V16.4163H17.2499C17.9416 16.4163 18.4999 16.9747 18.4999 17.6663C18.4999 18.358 17.9416 18.9163 17.2499 18.9163Z" fill="#3A3541" fill-opacity="0.54"/>
<rect x="0.5" y="0.5" width="31" height="31" rx="3.5" stroke="#3A3541" stroke-opacity="0.12"/>
</svg>
