<svg width="22" height="22" viewBox="0 0 22 22" fill="none" xmlns="http://www.w3.org/2000/svg">
<path d="M14.2084 12.8333H13.4842L13.2275 12.5858C14.1259 11.5408 14.6667 10.1842 14.6667 8.70833C14.6667 5.4175 11.9992 2.75 8.70836 2.75C5.41753 2.75 2.75003 5.4175 2.75003 8.70833C2.75003 11.9992 5.41753 14.6667 8.70836 14.6667C10.1842 14.6667 11.5409 14.1258 12.5859 13.2275L12.8334 13.4842V14.2083L17.4167 18.7825L18.7825 17.4167L14.2084 12.8333ZM8.70836 12.8333C6.42586 12.8333 4.58336 10.9908 4.58336 8.70833C4.58336 6.42583 6.42586 4.58333 8.70836 4.58333C10.9909 4.58333 12.8334 6.42583 12.8334 8.70833C12.8334 10.9908 10.9909 12.8333 8.70836 12.8333Z" fill="#3A3541" fill-opacity="0.38"/>
</svg>
