<svg width="34" height="34" viewBox="0 0 34 34" fill="none" xmlns="http://www.w3.org/2000/svg">
<rect width="34" height="34" rx="17" fill="#ED6C02"/>
<rect width="34" height="34" rx="17" fill="white" fill-opacity="0.88"/>
<path d="M17 9.16667C12.4167 9.16667 8.66667 12.9167 8.66667 17.5C8.66667 22.0833 12.4167 25.8333 17 25.8333C21.5833 25.8333 25.3333 22.0833 25.3333 17.5C25.3333 12.9167 21.5833 9.16667 17 9.16667ZM17.8333 10.8917C20.8417 11.2667 23.2333 13.6667 23.6083 16.6667H17.8333V10.8917ZM10.3333 17.5C10.3333 14.1167 12.8917 11.3 16.1667 10.8917V24.1167C12.8917 23.7 10.3333 20.8833 10.3333 17.5ZM17.8333 24.1083V18.3333H23.6083C23.2333 21.3417 20.8417 23.7333 17.8333 24.1083Z" fill="#FFB400"/>
</svg>
