<svg width="22" height="22" viewBox="0 0 22 22" fill="none" xmlns="http://www.w3.org/2000/svg">
<path d="M15.125 5.49984V16.0415C15.125 18.0673 13.4842 19.7082 11.4584 19.7082C9.43252 19.7082 7.79169 18.0673 7.79169 16.0415V4.58317C7.79169 3.31817 8.81835 2.2915 10.0834 2.2915C11.3484 2.2915 12.375 3.31817 12.375 4.58317V14.2082C12.375 14.7123 11.9625 15.1248 11.4584 15.1248C10.9542 15.1248 10.5417 14.7123 10.5417 14.2082V5.49984H9.16669V14.2082C9.16669 15.4732 10.1934 16.4998 11.4584 16.4998C12.7234 16.4998 13.75 15.4732 13.75 14.2082V4.58317C13.75 2.55734 12.1092 0.916504 10.0834 0.916504C8.05752 0.916504 6.41669 2.55734 6.41669 4.58317V16.0415C6.41669 18.8282 8.67169 21.0832 11.4584 21.0832C14.245 21.0832 16.5 18.8282 16.5 16.0415V5.49984H15.125Z" fill="#3A3541" fill-opacity="0.87"/>
</svg>
