<svg width="22" height="22" viewBox="0 0 22 22" fill="none" xmlns="http://www.w3.org/2000/svg">
<path d="M11 12.8335C12.5217 12.8335 13.7409 11.6052 13.7409 10.0835L13.75 4.5835C13.75 3.06183 12.5217 1.8335 11 1.8335C9.47837 1.8335 8.25004 3.06183 8.25004 4.5835V10.0835C8.25004 11.6052 9.47837 12.8335 11 12.8335ZM15.8584 10.0835C15.8584 12.8335 13.53 14.7585 11 14.7585C8.47004 14.7585 6.14171 12.8335 6.14171 10.0835H4.58337C4.58337 13.2093 7.07671 15.7943 10.0834 16.2435V19.2502H11.9167V16.2435C14.9234 15.8035 17.4167 13.2185 17.4167 10.0835H15.8584Z" fill="#3A3541" fill-opacity="0.87"/>
</svg>
