<svg width="10" height="20" viewBox="0 0 10 20" fill="none" xmlns="http://www.w3.org/2000/svg">
<path d="M5.86133 0.505859V3.42578H4.35742V0.505859H5.86133ZM5.67578 16.4531V19.0703H4.18164V16.4531H5.67578ZM7.15039 13.2988C7.15039 12.9212 7.07227 12.5924 6.91602 12.3125C6.76628 12.026 6.51888 11.7689 6.17383 11.541C5.82878 11.3066 5.36654 11.0885 4.78711 10.8867C3.95378 10.5938 3.22461 10.265 2.59961 9.90039C1.98112 9.5293 1.49935 9.07357 1.1543 8.5332C0.815755 7.98633 0.646484 7.30599 0.646484 6.49219C0.646484 5.69141 0.828776 4.99805 1.19336 4.41211C1.56445 3.82617 2.07878 3.3737 2.73633 3.05469C3.39388 2.73568 4.16211 2.57617 5.04102 2.57617C5.7181 2.57617 6.32682 2.67708 6.86719 2.87891C7.41406 3.08073 7.87956 3.37695 8.26367 3.76758C8.64779 4.1582 8.94076 4.63997 9.14258 5.21289C9.35091 5.7793 9.45508 6.43034 9.45508 7.16602H7.11133C7.11133 6.74935 7.0625 6.37826 6.96484 6.05273C6.8737 5.7207 6.73698 5.44076 6.55469 5.21289C6.3724 4.97852 6.15104 4.79948 5.89062 4.67578C5.63672 4.55208 5.34701 4.49023 5.02148 4.49023C4.55924 4.49023 4.17839 4.57812 3.87891 4.75391C3.57943 4.92318 3.35807 5.15755 3.21484 5.45703C3.07812 5.75651 3.00977 6.09831 3.00977 6.48242C3.00977 6.85352 3.08138 7.17904 3.22461 7.45898C3.36784 7.73893 3.61198 7.99284 3.95703 8.2207C4.30859 8.44206 4.79036 8.66667 5.40234 8.89453C6.24219 9.19401 6.9681 9.5293 7.58008 9.90039C8.19857 10.265 8.67383 10.7174 9.00586 11.2578C9.3444 11.7917 9.51367 12.4655 9.51367 13.2793C9.51367 14.1191 9.31836 14.832 8.92773 15.418C8.54362 16.0039 8.00326 16.4499 7.30664 16.7559C6.61654 17.0553 5.8125 17.2051 4.89453 17.2051C4.3151 17.2051 3.73893 17.1302 3.16602 16.9805C2.59961 16.8242 2.08529 16.5703 1.62305 16.2188C1.16081 15.8672 0.792969 15.4017 0.519531 14.8223C0.246094 14.2363 0.109375 13.5202 0.109375 12.6738H2.47266C2.47266 13.1816 2.54102 13.6048 2.67773 13.9434C2.81445 14.2819 3 14.5488 3.23438 14.7441C3.46875 14.9395 3.72917 15.0794 4.01562 15.1641C4.30859 15.2487 4.60156 15.291 4.89453 15.291C5.38281 15.291 5.79297 15.2096 6.125 15.0469C6.46354 14.8776 6.71745 14.6432 6.88672 14.3438C7.0625 14.0378 7.15039 13.6895 7.15039 13.2988Z" fill="#9155FD"/>
</svg>
