<svg width="19" height="18" viewBox="0 0 19 18" fill="none" xmlns="http://www.w3.org/2000/svg">
<path d="M3.425 9C3.425 7.7175 4.4675 6.675 5.75 6.675H8.75V5.25H5.75C3.68 5.25 2 6.93 2 9C2 11.07 3.68 12.75 5.75 12.75H8.75V11.325H5.75C4.4675 11.325 3.425 10.2825 3.425 9ZM6.5 9.75H12.5V8.25H6.5V9.75ZM13.25 5.25H10.25V6.675H13.25C14.5325 6.675 15.575 7.7175 15.575 9C15.575 10.2825 14.5325 11.325 13.25 11.325H10.25V12.75H13.25C15.32 12.75 17 11.07 17 9C17 6.93 15.32 5.25 13.25 5.25Z" fill="#3A3541" fill-opacity="0.87"/>
</svg>
