<svg width="19" height="18" viewBox="0 0 19 18" fill="none" xmlns="http://www.w3.org/2000/svg">
<path d="M9.5 4.425C10.37 4.425 11.075 5.13 11.075 6C11.075 6.87 10.37 7.575 9.5 7.575C8.63 7.575 7.925 6.87 7.925 6C7.925 5.13 8.63 4.425 9.5 4.425ZM9.5 11.175C11.7275 11.175 14.075 12.27 14.075 12.75V13.575H4.925V12.75C4.925 12.27 7.2725 11.175 9.5 11.175ZM9.5 3C7.8425 3 6.5 4.3425 6.5 6C6.5 7.6575 7.8425 9 9.5 9C11.1575 9 12.5 7.6575 12.5 6C12.5 4.3425 11.1575 3 9.5 3ZM9.5 9.75C7.4975 9.75 3.5 10.755 3.5 12.75V15H15.5V12.75C15.5 10.755 11.5025 9.75 9.5 9.75Z" fill="#9155FD"/>
</svg>
