<svg width="21" height="20" viewBox="0 0 21 20" fill="none" xmlns="http://www.w3.org/2000/svg">
<path d="M10.3333 9.08333C8.4416 8.59167 7.83327 8.08333 7.83327 7.29167C7.83327 6.38333 8.67493 5.75 10.0833 5.75C11.5666 5.75 12.1166 6.45833 12.1666 7.5H14.0083C13.9499 6.06667 13.0749 4.75 11.3333 4.325V2.5H8.83327V4.3C7.2166 4.65 5.9166 5.7 5.9166 7.30833C5.9166 9.23333 7.50827 10.1917 9.83327 10.75C11.9166 11.25 12.3333 11.9833 12.3333 12.7583C12.3333 13.3333 11.9249 14.25 10.0833 14.25C8.3666 14.25 7.6916 13.4833 7.59993 12.5H5.7666C5.8666 14.325 7.23327 15.35 8.83327 15.6917V17.5H11.3333V15.7083C12.9583 15.4 14.2499 14.4583 14.2499 12.75C14.2499 10.3833 12.2249 9.575 10.3333 9.08333Z" fill="white"/>
</svg>
