<svg width="40" height="40" viewBox="0 0 40 40" fill="none" xmlns="http://www.w3.org/2000/svg">
<path d="M17.37 13.51C17.19 14.15 17.1 14.82 17.1 15.5C17.1 19.58 20.42 22.9 24.5 22.9C25.18 22.9 25.85 22.81 26.49 22.63C25.45 25.19 22.93 27 20 27C16.14 27 13 23.86 13 20C13 17.07 14.81 14.55 17.37 13.51ZM20 11C15.03 11 11 15.03 11 20C11 24.97 15.03 29 20 29C24.97 29 29 24.97 29 20C29 19.54 28.96 19.08 28.9 18.64C27.92 20.01 26.32 20.9 24.5 20.9C21.52 20.9 19.1 18.48 19.1 15.5C19.1 13.69 19.99 12.08 21.36 11.1C20.92 11.04 20.46 11 20 11Z" fill="#3A3541" fill-opacity="0.87"/>
</svg>
